<?xml version="1.0" encoding="UTF-8"?>
<svg width="1200" height="630" viewBox="0 0 1200 630" xmlns="http://www.w3.org/2000/svg">
    <defs>
        <linearGradient id="bg-gradient" x1="0" y1="0" x2="100%" y2="100%">
            <stop offset="0%" style="stop-color:#4a5568"/>
            <stop offset="100%" style="stop-color:#805ad5"/>
        </linearGradient>
        
        <!-- Neural Network Pattern -->
        <pattern id="neural-pattern" x="0" y="0" width="100" height="100" patternUnits="userSpaceOnUse">
            <circle cx="50" cy="50" r="2" fill="white" opacity="0.3"/>
            <circle cx="0" cy="0" r="2" fill="white" opacity="0.3"/>
            <circle cx="100" cy="100" r="2" fill="white" opacity="0.3"/>
            <line x1="50" y1="50" x2="0" y2="0" stroke="white" stroke-width="0.5" opacity="0.2"/>
            <line x1="50" y1="50" x2="100" y2="100" stroke="white" stroke-width="0.5" opacity="0.2"/>
        </pattern>
        
        <!-- Consciousness Symbol -->
        <symbol id="consciousness-icon" viewBox="0 0 100 100">
            <circle cx="50" cy="50" r="45" fill="none" stroke="white" stroke-width="2"/>
            <circle cx="50" cy="50" r="35" fill="none" stroke="white" stroke-width="2"/>
            <circle cx="50" cy="50" r="25" fill="none" stroke="white" stroke-width="2"/>
            <circle cx="50" cy="50" r="5" fill="white"/>
        </symbol>
    </defs>
    
    <!-- Background -->
    <rect width="1200" height="630" fill="url(#bg-gradient)"/>
    <rect width="1200" height="630" fill="url(#neural-pattern)"/>
    
    <!-- Content -->
    <g transform="translate(100, 180)">
        <!-- Title -->
        <text x="0" y="0" font-family="Inter, sans-serif" font-size="64" font-weight="bold" fill="white">
            Consciousness in the Age of AI
        </text>
        
        <!-- Subtitle -->
        <text x="0" y="100" font-family="Inter, sans-serif" font-size="32" fill="white" opacity="0.9">
            A Deep Dive into Machine Sentience
        </text>
        
        <!-- Author -->
        <text x="0" y="180" font-family="Inter, sans-serif" font-size="24" fill="white" opacity="0.8">
            By Elijah Teal · Realitology.online
        </text>
    </g>
    
    <!-- Consciousness Icon -->
    <use href="#consciousness-icon" x="900" y="265" width="200" height="200"/>
    
    <!-- Logo -->
    <g transform="translate(100, 500)">
        <circle cx="25" cy="25" r="25" fill="white" opacity="0.9"/>
        <path d="M25 10l-15 7.5L25 25l15-7.5L25 10z" fill="#4a5568"/>
        <path d="M10 32.5L25 40l15-7.5M10 25L25 32.5 40 25" stroke="#4a5568" stroke-width="2"/>
    </g>
</svg>
