<?xml version="1.0" encoding="UTF-8"?>
<svg width="1200" height="630" viewBox="0 0 1200 630" xmlns="http://www.w3.org/2000/svg">
    <defs>
        <linearGradient id="bg-gradient" x1="0" y1="0" x2="100%" y2="100%">
            <stop offset="0%" style="stop-color:#2d3748"/>
            <stop offset="100%" style="stop-color:#6366f1"/>
        </linearGradient>
        <pattern id="overlay-pattern" x="0" y="0" width="40" height="40" patternUnits="userSpaceOnUse">
            <circle cx="20" cy="20" r="1" fill="white" opacity="0.1"/>
            <line x1="0" y1="20" x2="40" y2="20" stroke="white" stroke-width="0.5" opacity="0.05"/>
            <line x1="20" y1="0" x2="20" y2="40" stroke="white" stroke-width="0.5" opacity="0.05"/>
        </pattern>
    </defs>
    
    <!-- Background -->
    <rect width="1200" height="630" fill="url(#bg-gradient)"/>
    <rect width="1200" height="630" fill="url(#overlay-pattern)"/>
    
    <!-- Content -->
    <g transform="translate(100, 180)">
        <!-- Title -->
        <text x="0" y="0" font-family="Inter, sans-serif" font-size="64" font-weight="bold" fill="white">
            AI and the Nature of Reality
        </text>
        
        <!-- Subtitle -->
        <text x="0" y="100" font-family="Inter, sans-serif" font-size="32" fill="white" opacity="0.9">
            A Comprehensive Exploration
        </text>
        
        <!-- Author -->
        <text x="0" y="180" font-family="Inter, sans-serif" font-size="24" fill="white" opacity="0.8">
            By Elijah Teal · Realitology.online
        </text>
    </g>
    
    <!-- Logo -->
    <g transform="translate(100, 500)">
        <circle cx="25" cy="25" r="25" fill="white" opacity="0.9"/>
        <path d="M25 10l-15 7.5L25 25l15-7.5L25 10z" fill="#2d3748"/>
        <path d="M10 32.5L25 40l15-7.5M10 25L25 32.5 40 25" stroke="#2d3748" stroke-width="2"/>
    </g>
</svg>
